<?xml version="1.0" encoding="utf-8"?>
<!-- Generator: Adobe Illustrator 15.0.0, SVG Export Plug-In . SVG Version: 6.00 Build 0)  -->
<!DOCTYPE svg PUBLIC "-//W3C//DTD SVG 1.1//EN" "http://www.w3.org/Graphics/SVG/1.1/DTD/svg11.dtd">
<svg version="1.1" id="Calque_1" xmlns="http://www.w3.org/2000/svg" xmlns:xlink="http://www.w3.org/1999/xlink" x="0px" y="0px"
	 width="595.28px" height="841.89px" viewBox="0 0 595.28 841.89" enable-background="new 0 0 595.28 841.89" xml:space="preserve">
<path fill="#B9C5CC" d="M259.333,389.583v65.834h82.084v-65.834H259.333z M340,454h-79.25v-63H340V454z"/>
<path fill="#B9C5CC" d="M280.875,404.666c-4.527,0-8.209,3.683-8.209,8.209s3.683,8.209,8.209,8.209s8.209-3.683,8.209-8.209
	S285.402,404.666,280.875,404.666z M280.875,418.25c-2.969,0-5.375-2.406-5.375-5.375s2.406-5.375,5.375-5.375
	s5.375,2.406,5.375,5.375S283.844,418.25,280.875,418.25z"/>
<path fill="#B9C5CC" d="M334.488,430.482l-16.25-15.75c-0.525-0.51-1.352-0.534-1.907-0.06l-16.845,14.391l-5.5-5.331
	c-0.525-0.51-1.351-0.534-1.907-0.06l-25.75,22c-0.595,0.508-0.665,1.402-0.157,1.998c0.28,0.328,0.678,0.496,1.078,0.496
	c0.326,0,0.653-0.111,0.92-0.34l24.769-21.161l15.324,14.852c0.562,0.545,1.46,0.532,2.004-0.031
	c0.545-0.562,0.531-1.459-0.031-2.004l-8.705-8.437l15.66-13.38l15.324,14.852c0.562,0.545,1.46,0.532,2.004-0.031
	C335.064,431.925,335.051,431.027,334.488,430.482z"/>
</svg>
